<svg width="954" height="225" viewBox="0 0 954 225" fill="none" xmlns="http://www.w3.org/2000/svg">
<path d="M244.86 160V86.5H254.38V106.52L253.4 103.02C255.453 97.42 258.907 93.1733 263.76 90.28C268.613 87.2933 274.633 85.8 281.82 85.8V95.46C281.447 95.46 281.073 95.46 280.7 95.46C280.327 95.3667 279.953 95.32 279.58 95.32C271.833 95.32 265.767 97.7 261.38 102.46C256.993 107.127 254.8 113.8 254.8 122.48V160H244.86ZM330.494 160.7C322.841 160.7 316.121 159.113 310.334 155.94C304.547 152.673 300.021 148.24 296.754 142.64C293.487 136.947 291.854 130.46 291.854 123.18C291.854 115.9 293.394 109.46 296.474 103.86C299.647 98.26 303.941 93.8733 309.354 90.7C314.861 87.4333 321.021 85.8 327.834 85.8C334.741 85.8 340.854 87.3867 346.174 90.56C351.587 93.64 355.834 98.0267 358.914 103.72C361.994 109.32 363.534 115.807 363.534 123.18C363.534 123.647 363.487 124.16 363.394 124.72C363.394 125.187 363.394 125.7 363.394 126.26H299.414V118.84H358.074L354.154 121.78C354.154 116.46 352.987 111.747 350.654 107.64C348.414 103.44 345.334 100.173 341.414 97.84C337.494 95.5067 332.967 94.34 327.834 94.34C322.794 94.34 318.267 95.5067 314.254 97.84C310.241 100.173 307.114 103.44 304.874 107.64C302.634 111.84 301.514 116.647 301.514 122.06V123.6C301.514 129.2 302.727 134.147 305.154 138.44C307.674 142.64 311.127 145.953 315.514 148.38C319.994 150.713 325.081 151.88 330.774 151.88C335.254 151.88 339.407 151.087 343.234 149.5C347.154 147.913 350.514 145.487 353.314 142.22L358.914 148.66C355.647 152.58 351.541 155.567 346.594 157.62C341.741 159.673 336.374 160.7 330.494 160.7ZM427.775 160V143.76L427.355 141.1V113.94C427.355 107.687 425.582 102.88 422.035 99.52C418.582 96.16 413.402 94.48 406.495 94.48C401.735 94.48 397.209 95.2733 392.915 96.86C388.622 98.4467 384.982 100.547 381.995 103.16L377.515 95.74C381.249 92.5667 385.729 90.14 390.955 88.46C396.182 86.6867 401.689 85.8 407.475 85.8C416.995 85.8 424.322 88.18 429.455 92.94C434.682 97.6067 437.295 104.747 437.295 114.36V160H427.775ZM402.435 160.7C396.929 160.7 392.122 159.813 388.015 158.04C384.002 156.173 380.922 153.653 378.775 150.48C376.629 147.213 375.555 143.48 375.555 139.28C375.555 135.453 376.442 132 378.215 128.92C380.082 125.747 383.069 123.227 387.175 121.36C391.375 119.4 396.975 118.42 403.975 118.42H429.315V125.84H404.255C397.162 125.84 392.215 127.1 389.415 129.62C386.709 132.14 385.355 135.267 385.355 139C385.355 143.2 386.989 146.56 390.255 149.08C393.522 151.6 398.095 152.86 403.975 152.86C409.575 152.86 414.382 151.6 418.395 149.08C422.502 146.467 425.489 142.733 427.355 137.88L429.595 144.74C427.729 149.593 424.462 153.467 419.795 156.36C415.222 159.253 409.435 160.7 402.435 160.7ZM494.814 160.7C487.534 160.7 481 159.113 475.214 155.94C469.52 152.673 465.04 148.24 461.774 142.64C458.507 136.947 456.874 130.46 456.874 123.18C456.874 115.807 458.507 109.32 461.774 103.72C465.04 98.12 469.52 93.7333 475.214 90.56C481 87.3867 487.534 85.8 494.814 85.8C501.067 85.8 506.714 87.0133 511.754 89.44C516.794 91.8667 520.76 95.5067 523.654 100.36L516.234 105.4C513.714 101.667 510.587 98.9133 506.854 97.14C503.12 95.3667 499.06 94.48 494.674 94.48C489.447 94.48 484.734 95.6933 480.534 98.12C476.334 100.453 473.02 103.767 470.594 108.06C468.167 112.353 466.954 117.393 466.954 123.18C466.954 128.967 468.167 134.007 470.594 138.3C473.02 142.593 476.334 145.953 480.534 148.38C484.734 150.713 489.447 151.88 494.674 151.88C499.06 151.88 503.12 150.993 506.854 149.22C510.587 147.447 513.714 144.74 516.234 141.1L523.654 146.14C520.76 150.9 516.794 154.54 511.754 157.06C506.714 159.487 501.067 160.7 494.814 160.7ZM567.241 160.7C560.334 160.7 555.014 158.833 551.281 155.1C547.547 151.367 545.681 146.093 545.681 139.28V70.26H555.621V138.72C555.621 143.013 556.694 146.327 558.841 148.66C561.081 150.993 564.254 152.16 568.361 152.16C572.747 152.16 576.387 150.9 579.281 148.38L582.781 155.52C580.821 157.293 578.441 158.6 575.641 159.44C572.934 160.28 570.134 160.7 567.241 160.7ZM532.521 94.76V86.5H578.021V94.76H532.521Z" fill="#F4F7F6"/>
<path d="M607.8 160V62H635.52V160H607.8ZM685.068 160L643.208 62H673.168L708.448 146.84H690.808L726.928 62H754.368L712.368 160H685.068ZM785.585 99.94H831.085V120.66H785.585V99.94ZM787.545 138.58H838.785V160H760.105V62H836.965V83.42H787.545V138.58Z" fill="url(#paint0_linear_10_262)"/>
<g clip-path="url(#clip0_10_262)">
<circle cx="110.5" cy="112.5" r="96.5" stroke="#3A7BD5" stroke-width="10"/>
<ellipse cx="23" cy="152.5" rx="13" ry="12.5" fill="#0A1128"/>
<ellipse cx="12" cy="109.5" rx="13" ry="12.5" fill="#0A1128"/>
<ellipse cx="197" cy="66.5" rx="13" ry="12.5" fill="#0A1128"/>
<ellipse cx="207" cy="109.5" rx="13" ry="12.5" fill="#0A1128"/>
<path d="M113.5 148C128.493 132.854 136.687 124.213 153 110L164.5 112C160.643 112.792 157 115.5 155 116.5C153 117.5 115.532 157.373 118 153L113.5 148Z" fill="url(#paint1_linear_10_262)"/>
<path d="M32 152.5C32 157.194 27.9706 161 23 161C18.0294 161 14 157.194 14 152.5C14 147.806 18.0294 144 23 144C27.9706 144 32 147.806 32 152.5Z" fill="url(#paint2_linear_10_262)"/>
<path d="M119 152.5C119 157.194 114.971 161 110 161C105.029 161 101 157.194 101 152.5C101 147.806 105.029 144 110 144C114.971 144 119 147.806 119 152.5Z" fill="url(#paint3_linear_10_262)"/>
<path d="M21 149H108V156H21V149Z" fill="url(#paint4_linear_10_262)"/>
<path d="M117 106H200V113H117V106Z" fill="#3A7BD5"/>
<path d="M216 109.5C216 114.194 211.971 118 207 118C202.029 118 198 114.194 198 109.5C198 104.806 202.029 101 207 101C211.971 101 216 104.806 216 109.5Z" fill="#3A7BD5"/>
<path d="M119 109.5C119 114.194 114.971 118 110 118C105.029 118 101 114.194 101 109.5C101 104.806 105.029 101 110 101C114.971 101 119 104.806 119 109.5Z" fill="#3A7BD5"/>
<path d="M14 128H61V135H14V128Z" fill="#3A7BD5"/>
<path d="M93 106C77.5013 112.71 75.965 121.018 61 128V135C75.9439 130.558 79.7334 119.732 93 113V106Z" fill="#3A7BD5"/>
<path d="M93 106H103V113H93V106Z" fill="#3A7BD5"/>
<path d="M119 66.5C119 71.1944 114.971 75 110 75C105.029 75 101 71.1944 101 66.5C101 61.8056 105.029 58 110 58C114.971 58 119 61.8056 119 66.5Z" fill="white"/>
<path d="M21 109.5C21 114.194 16.9706 118 12 118C7.02944 118 3 114.194 3 109.5C3 104.806 7.02944 101 12 101C16.9706 101 21 104.806 21 109.5Z" fill="white"/>
<path d="M206 66.5C206 71.1944 201.971 75 197 75C192.029 75 188 71.1944 188 66.5C188 61.8056 192.029 58 197 58C201.971 58 206 61.8056 206 66.5Z" fill="white"/>
<path d="M118 63H189V70H118V63Z" fill="white"/>
<path d="M9 106H56V113H9V106Z" fill="white"/>
<path d="M89.5 73C99.7192 65.2026 104.725 62.7335 111.5 64C111.737 65.3016 112.077 67.9705 112.301 69.2734C112.54 69.4102 112.617 69.6494 112.5 70C112.463 70.11 112.392 69.8057 112.301 69.2734C110.611 68.3074 100.844 72.4473 94.5 78.5C81.9672 91.4702 67 111 62.5 112C58 113 55 112.5 55 112.5L53.5 112L51 107.5C51 107.5 53.5 107.5 58.5 105.5C63.5 103.5 70.5 93 73 90.5C75.5 88 77.4952 84.5064 89.5 73Z" fill="white"/>
</g>
<defs>
<linearGradient id="paint0_linear_10_262" x1="775.593" y1="24" x2="775.593" y2="195" gradientUnits="userSpaceOnUse">
<stop stop-color="white"/>
<stop offset="0.543269" stop-color="#3A7BD5"/>
</linearGradient>
<linearGradient id="paint1_linear_10_262" x1="-40.5" y1="28.5" x2="219" y2="242.5" gradientUnits="userSpaceOnUse">
<stop offset="0.408654" stop-color="#00D2FF"/>
<stop offset="0.646631" stop-color="#3A7BD5"/>
<stop offset="1" stop-color="white"/>
</linearGradient>
<linearGradient id="paint2_linear_10_262" x1="-40.5" y1="28.5" x2="219" y2="242.5" gradientUnits="userSpaceOnUse">
<stop offset="0.408654" stop-color="#00D2FF"/>
<stop offset="0.646631" stop-color="#3A7BD5"/>
<stop offset="1" stop-color="white"/>
</linearGradient>
<linearGradient id="paint3_linear_10_262" x1="-40.5" y1="28.5" x2="219" y2="242.5" gradientUnits="userSpaceOnUse">
<stop offset="0.408654" stop-color="#00D2FF"/>
<stop offset="0.646631" stop-color="#3A7BD5"/>
<stop offset="1" stop-color="white"/>
</linearGradient>
<linearGradient id="paint4_linear_10_262" x1="-40.5" y1="28.5" x2="219" y2="242.5" gradientUnits="userSpaceOnUse">
<stop offset="0.408654" stop-color="#00D2FF"/>
<stop offset="0.646631" stop-color="#3A7BD5"/>
<stop offset="1" stop-color="white"/>
</linearGradient>
<clipPath id="clip0_10_262">
<rect width="231" height="225" fill="white"/>
</clipPath>
</defs>
</svg>
