<svg width="231" height="225" viewBox="0 0 231 225" fill="none" xmlns="http://www.w3.org/2000/svg">
<g clip-path="url(#clip0_10_237)">
<circle cx="110.5" cy="112.5" r="96.5" stroke="#3A7BD5" stroke-width="10"/>
<ellipse cx="23" cy="152.5" rx="13" ry="12.5" fill="#0A1128"/>
<ellipse cx="12" cy="109.5" rx="13" ry="12.5" fill="#0A1128"/>
<ellipse cx="197" cy="66.5" rx="13" ry="12.5" fill="#0A1128"/>
<ellipse cx="207" cy="109.5" rx="13" ry="12.5" fill="#0A1128"/>
<path d="M113.5 148C128.493 132.854 136.687 124.213 153 110L164.5 112C160.643 112.792 157 115.5 155 116.5C153 117.5 115.532 157.373 118 153L113.5 148Z" fill="url(#paint0_linear_10_237)"/>
<path d="M32 152.5C32 157.194 27.9706 161 23 161C18.0294 161 14 157.194 14 152.5C14 147.806 18.0294 144 23 144C27.9706 144 32 147.806 32 152.5Z" fill="url(#paint1_linear_10_237)"/>
<path d="M119 152.5C119 157.194 114.971 161 110 161C105.029 161 101 157.194 101 152.5C101 147.806 105.029 144 110 144C114.971 144 119 147.806 119 152.5Z" fill="url(#paint2_linear_10_237)"/>
<path d="M21 149H108V156H21V149Z" fill="url(#paint3_linear_10_237)"/>
<path d="M117 106H200V113H117V106Z" fill="#3A7BD5"/>
<path d="M216 109.5C216 114.194 211.971 118 207 118C202.029 118 198 114.194 198 109.5C198 104.806 202.029 101 207 101C211.971 101 216 104.806 216 109.5Z" fill="#3A7BD5"/>
<path d="M119 109.5C119 114.194 114.971 118 110 118C105.029 118 101 114.194 101 109.5C101 104.806 105.029 101 110 101C114.971 101 119 104.806 119 109.5Z" fill="#3A7BD5"/>
<path d="M14 128H61V135H14V128Z" fill="#3A7BD5"/>
<path d="M93 106C77.5013 112.71 75.965 121.018 61 128V135C75.9439 130.558 79.7334 119.732 93 113V106Z" fill="#3A7BD5"/>
<path d="M93 106H103V113H93V106Z" fill="#3A7BD5"/>
<path d="M119 66.5C119 71.1944 114.971 75 110 75C105.029 75 101 71.1944 101 66.5C101 61.8056 105.029 58 110 58C114.971 58 119 61.8056 119 66.5Z" fill="white"/>
<path d="M21 109.5C21 114.194 16.9706 118 12 118C7.02944 118 3 114.194 3 109.5C3 104.806 7.02944 101 12 101C16.9706 101 21 104.806 21 109.5Z" fill="white"/>
<path d="M206 66.5C206 71.1944 201.971 75 197 75C192.029 75 188 71.1944 188 66.5C188 61.8056 192.029 58 197 58C201.971 58 206 61.8056 206 66.5Z" fill="white"/>
<path d="M118 63H189V70H118V63Z" fill="white"/>
<path d="M9 106H56V113H9V106Z" fill="white"/>
<path d="M89.5 73C99.7192 65.2026 104.725 62.7335 111.5 64C111.737 65.3016 112.077 67.9705 112.301 69.2734C112.54 69.4102 112.617 69.6494 112.5 70C112.463 70.11 112.392 69.8057 112.301 69.2734C110.611 68.3074 100.844 72.4473 94.5 78.5C81.9672 91.4702 67 111 62.5 112C58 113 55 112.5 55 112.5L53.5 112L51 107.5C51 107.5 53.5 107.5 58.5 105.5C63.5 103.5 70.5 93 73 90.5C75.5 88 77.4952 84.5064 89.5 73Z" fill="white"/>
</g>
<defs>
<linearGradient id="paint0_linear_10_237" x1="-40.5" y1="28.5" x2="219" y2="242.5" gradientUnits="userSpaceOnUse">
<stop offset="0.408654" stop-color="#00D2FF"/>
<stop offset="0.646631" stop-color="#3A7BD5"/>
<stop offset="1" stop-color="white"/>
</linearGradient>
<linearGradient id="paint1_linear_10_237" x1="-40.5" y1="28.5" x2="219" y2="242.5" gradientUnits="userSpaceOnUse">
<stop offset="0.408654" stop-color="#00D2FF"/>
<stop offset="0.646631" stop-color="#3A7BD5"/>
<stop offset="1" stop-color="white"/>
</linearGradient>
<linearGradient id="paint2_linear_10_237" x1="-40.5" y1="28.5" x2="219" y2="242.5" gradientUnits="userSpaceOnUse">
<stop offset="0.408654" stop-color="#00D2FF"/>
<stop offset="0.646631" stop-color="#3A7BD5"/>
<stop offset="1" stop-color="white"/>
</linearGradient>
<linearGradient id="paint3_linear_10_237" x1="-40.5" y1="28.5" x2="219" y2="242.5" gradientUnits="userSpaceOnUse">
<stop offset="0.408654" stop-color="#00D2FF"/>
<stop offset="0.646631" stop-color="#3A7BD5"/>
<stop offset="1" stop-color="white"/>
</linearGradient>
<clipPath id="clip0_10_237">
<rect width="231" height="225" fill="white"/>
</clipPath>
</defs>
</svg>
